<mxfile host="app.diagrams.net" modified="2024-02-06T04:05:28.209Z" agent="Mozilla/5.0 (Windows NT 10.0; Win64; x64) AppleWebKit/537.36 (KHTML, like Gecko) Chrome/120.0.0.0 Safari/537.36 Edg/120.0.0.0" etag="Ezp5NqBUKBojsn2mNoqj" version="22.1.20" type="github">
  <diagram name="第 1 页" id="UGQGqbN3PTk3k7qpgHgf">
    <mxGraphModel dx="3266" dy="1561" grid="0" gridSize="10" guides="1" tooltips="1" connect="1" arrows="1" fold="1" page="0" pageScale="1" pageWidth="827" pageHeight="1169" math="0" shadow="0">
      <root>
        <mxCell id="0" />
        <mxCell id="1" parent="0" />
        <mxCell id="EUHXpww-M6-aMKaFH9T1-1" value="space-server" style="rounded=1;whiteSpace=wrap;html=1;sketch=1;hachureGap=4;jiggle=2;curveFitting=1;fontFamily=Architects Daughter;fontSource=https%3A%2F%2Ffonts.googleapis.com%2Fcss%3Ffamily%3DArchitects%2BDaughter;fontSize=20;" parent="1" vertex="1">
          <mxGeometry x="340" y="-24" width="215" height="139" as="geometry" />
        </mxCell>
        <mxCell id="EUHXpww-M6-aMKaFH9T1-2" value="merlin-server" style="rounded=1;whiteSpace=wrap;html=1;sketch=1;hachureGap=4;jiggle=2;curveFitting=1;fontFamily=Architects Daughter;fontSource=https%3A%2F%2Ffonts.googleapis.com%2Fcss%3Ffamily%3DArchitects%2BDaughter;fontSize=20;" parent="1" vertex="1">
          <mxGeometry x="-230" y="-44" width="221" height="173" as="geometry" />
        </mxCell>
        <mxCell id="EUHXpww-M6-aMKaFH9T1-3" value="internal:" style="rounded=1;whiteSpace=wrap;html=1;sketch=1;hachureGap=4;jiggle=2;curveFitting=1;fontFamily=Architects Daughter;fontSource=https%3A%2F%2Ffonts.googleapis.com%2Fcss%3Ffamily%3DArchitects%2BDaughter;fontSize=20;" parent="1" vertex="1">
          <mxGeometry x="-47" y="-24" width="162" height="87" as="geometry" />
        </mxCell>
        <mxCell id="EUHXpww-M6-aMKaFH9T1-4" value="space API" style="rounded=1;whiteSpace=wrap;html=1;sketch=1;hachureGap=4;jiggle=2;curveFitting=1;fontFamily=Architects Daughter;fontSource=https%3A%2F%2Ffonts.googleapis.com%2Fcss%3Ffamily%3DArchitects%2BDaughter;fontSize=20;" parent="1" vertex="1">
          <mxGeometry x="-315" y="-26" width="120" height="60" as="geometry" />
        </mxCell>
        <mxCell id="EUHXpww-M6-aMKaFH9T1-6" value="2/6：查询space详情，代码变更消息，前端log设计图，CCI开发完成（CCI依赖swr上传镜像，阻塞ing）&lt;br&gt;2/7：更新状态接口，调用日志接口&lt;br&gt;2/8：联调" style="rounded=1;whiteSpace=wrap;html=1;sketch=1;hachureGap=4;jiggle=2;curveFitting=1;fontFamily=Architects Daughter;fontSource=https%3A%2F%2Ffonts.googleapis.com%2Fcss%3Ffamily%3DArchitects%2BDaughter;fontSize=20;" parent="1" vertex="1">
          <mxGeometry x="-927" y="-363" width="702" height="152" as="geometry" />
        </mxCell>
        <mxCell id="WGlPNumz3ylJq4lVujA1-1" value="" style="shape=flexArrow;endArrow=classic;html=1;rounded=0;sketch=1;hachureGap=4;jiggle=2;curveFitting=1;fontFamily=Architects Daughter;fontSource=https%3A%2F%2Ffonts.googleapis.com%2Fcss%3Ffamily%3DArchitects%2BDaughter;fontSize=16;startSize=8;endSize=8;curved=1;" edge="1" parent="1">
          <mxGeometry width="50" height="50" relative="1" as="geometry">
            <mxPoint x="-707" y="983" as="sourcePoint" />
            <mxPoint x="-147" y="983" as="targetPoint" />
          </mxGeometry>
        </mxCell>
        <mxCell id="WGlPNumz3ylJq4lVujA1-2" value="昇思大模型平台" style="rounded=1;whiteSpace=wrap;html=1;sketch=1;hachureGap=4;jiggle=2;curveFitting=1;fontFamily=Architects Daughter;fontSource=https%3A%2F%2Ffonts.googleapis.com%2Fcss%3Ffamily%3DArchitects%2BDaughter;fontSize=20;" vertex="1" parent="1">
          <mxGeometry x="-865" y="628" width="198" height="60" as="geometry" />
        </mxCell>
        <mxCell id="WGlPNumz3ylJq4lVujA1-3" value="23.10.10" style="text;html=1;strokeColor=none;fillColor=none;align=center;verticalAlign=middle;whiteSpace=wrap;rounded=0;fontSize=20;fontFamily=Architects Daughter;" vertex="1" parent="1">
          <mxGeometry x="-734" y="915" width="60" height="30" as="geometry" />
        </mxCell>
        <mxCell id="WGlPNumz3ylJq4lVujA1-4" value="" style="endArrow=classic;html=1;rounded=0;sketch=1;hachureGap=4;jiggle=2;curveFitting=1;fontFamily=Architects Daughter;fontSource=https%3A%2F%2Ffonts.googleapis.com%2Fcss%3Ffamily%3DArchitects%2BDaughter;fontSize=16;startSize=8;endSize=8;curved=1;" edge="1" parent="1">
          <mxGeometry width="50" height="50" relative="1" as="geometry">
            <mxPoint x="-707" y="1059" as="sourcePoint" />
            <mxPoint x="-707" y="994" as="targetPoint" />
          </mxGeometry>
        </mxCell>
        <mxCell id="WGlPNumz3ylJq4lVujA1-5" value="崇明测试启动" style="text;html=1;align=center;verticalAlign=middle;resizable=0;points=[];autosize=1;strokeColor=none;fillColor=none;fontSize=20;fontFamily=Architects Daughter;" vertex="1" parent="1">
          <mxGeometry x="-775" y="1069" width="138" height="36" as="geometry" />
        </mxCell>
        <mxCell id="WGlPNumz3ylJq4lVujA1-6" value="23.10.23" style="text;html=1;strokeColor=none;fillColor=none;align=center;verticalAlign=middle;whiteSpace=wrap;rounded=0;fontSize=20;fontFamily=Architects Daughter;" vertex="1" parent="1">
          <mxGeometry x="-600" y="915" width="60" height="30" as="geometry" />
        </mxCell>
        <mxCell id="WGlPNumz3ylJq4lVujA1-7" value="" style="endArrow=classic;html=1;rounded=0;sketch=1;hachureGap=4;jiggle=2;curveFitting=1;fontFamily=Architects Daughter;fontSource=https%3A%2F%2Ffonts.googleapis.com%2Fcss%3Ffamily%3DArchitects%2BDaughter;fontSize=16;startSize=8;endSize=8;curved=1;" edge="1" parent="1">
          <mxGeometry width="50" height="50" relative="1" as="geometry">
            <mxPoint x="-567" y="1059" as="sourcePoint" />
            <mxPoint x="-567" y="994" as="targetPoint" />
          </mxGeometry>
        </mxCell>
        <mxCell id="WGlPNumz3ylJq4lVujA1-8" value="崇明测试结束" style="text;html=1;align=center;verticalAlign=middle;resizable=0;points=[];autosize=1;strokeColor=none;fillColor=none;fontSize=20;fontFamily=Architects Daughter;" vertex="1" parent="1">
          <mxGeometry x="-635" y="1069" width="138" height="36" as="geometry" />
        </mxCell>
        <mxCell id="WGlPNumz3ylJq4lVujA1-9" value="2023-11-23" style="text;html=1;strokeColor=none;fillColor=none;align=center;verticalAlign=middle;whiteSpace=wrap;rounded=0;fontSize=20;fontFamily=Architects Daughter;" vertex="1" parent="1">
          <mxGeometry x="-439" y="918" width="94" height="30" as="geometry" />
        </mxCell>
        <mxCell id="WGlPNumz3ylJq4lVujA1-10" value="" style="endArrow=classic;html=1;rounded=0;sketch=1;hachureGap=4;jiggle=2;curveFitting=1;fontFamily=Architects Daughter;fontSource=https%3A%2F%2Ffonts.googleapis.com%2Fcss%3Ffamily%3DArchitects%2BDaughter;fontSize=16;startSize=8;endSize=8;curved=1;" edge="1" parent="1">
          <mxGeometry width="50" height="50" relative="1" as="geometry">
            <mxPoint x="-393" y="1059" as="sourcePoint" />
            <mxPoint x="-393" y="994" as="targetPoint" />
          </mxGeometry>
        </mxCell>
        <mxCell id="WGlPNumz3ylJq4lVujA1-11" value="ICSL启动" style="text;html=1;align=center;verticalAlign=middle;resizable=0;points=[];autosize=1;strokeColor=none;fillColor=none;fontSize=20;fontFamily=Architects Daughter;" vertex="1" parent="1">
          <mxGeometry x="-443" y="1069" width="102" height="36" as="geometry" />
        </mxCell>
        <mxCell id="WGlPNumz3ylJq4lVujA1-12" value="2023-12-26" style="text;html=1;strokeColor=none;fillColor=none;align=center;verticalAlign=middle;whiteSpace=wrap;rounded=0;fontSize=20;fontFamily=Architects Daughter;" vertex="1" parent="1">
          <mxGeometry x="-315" y="918" width="109" height="30" as="geometry" />
        </mxCell>
        <mxCell id="WGlPNumz3ylJq4lVujA1-13" value="" style="endArrow=classic;html=1;rounded=0;sketch=1;hachureGap=4;jiggle=2;curveFitting=1;fontFamily=Architects Daughter;fontSource=https%3A%2F%2Ffonts.googleapis.com%2Fcss%3Ffamily%3DArchitects%2BDaughter;fontSize=16;startSize=8;endSize=8;curved=1;" edge="1" parent="1">
          <mxGeometry width="50" height="50" relative="1" as="geometry">
            <mxPoint x="-265" y="1062" as="sourcePoint" />
            <mxPoint x="-265" y="997" as="targetPoint" />
          </mxGeometry>
        </mxCell>
        <mxCell id="WGlPNumz3ylJq4lVujA1-14" value="ICSL发证" style="text;html=1;align=center;verticalAlign=middle;resizable=0;points=[];autosize=1;strokeColor=none;fillColor=none;fontSize=20;fontFamily=Architects Daughter;" vertex="1" parent="1">
          <mxGeometry x="-315" y="1067" width="102" height="36" as="geometry" />
        </mxCell>
        <mxCell id="WGlPNumz3ylJq4lVujA1-16" value="" style="shape=flexArrow;endArrow=classic;html=1;rounded=0;sketch=1;hachureGap=4;jiggle=2;curveFitting=1;fontFamily=Architects Daughter;fontSource=https%3A%2F%2Ffonts.googleapis.com%2Fcss%3Ffamily%3DArchitects%2BDaughter;fontSize=16;startSize=8;endSize=8;curved=1;" edge="1" parent="1">
          <mxGeometry width="50" height="50" relative="1" as="geometry">
            <mxPoint x="-707" y="1377" as="sourcePoint" />
            <mxPoint x="-147" y="1377" as="targetPoint" />
          </mxGeometry>
        </mxCell>
        <mxCell id="WGlPNumz3ylJq4lVujA1-17" value="2-23" style="text;html=1;strokeColor=none;fillColor=none;align=center;verticalAlign=middle;whiteSpace=wrap;rounded=0;fontSize=20;fontFamily=Architects Daughter;" vertex="1" parent="1">
          <mxGeometry x="-734" y="1309" width="60" height="30" as="geometry" />
        </mxCell>
        <mxCell id="WGlPNumz3ylJq4lVujA1-18" value="" style="endArrow=classic;html=1;rounded=0;sketch=1;hachureGap=4;jiggle=2;curveFitting=1;fontFamily=Architects Daughter;fontSource=https%3A%2F%2Ffonts.googleapis.com%2Fcss%3Ffamily%3DArchitects%2BDaughter;fontSize=16;startSize=8;endSize=8;curved=1;" edge="1" parent="1">
          <mxGeometry width="50" height="50" relative="1" as="geometry">
            <mxPoint x="-707" y="1453" as="sourcePoint" />
            <mxPoint x="-707" y="1388" as="targetPoint" />
          </mxGeometry>
        </mxCell>
        <mxCell id="WGlPNumz3ylJq4lVujA1-19" value="崇明测试启动" style="text;html=1;align=center;verticalAlign=middle;resizable=0;points=[];autosize=1;strokeColor=none;fillColor=none;fontSize=20;fontFamily=Architects Daughter;" vertex="1" parent="1">
          <mxGeometry x="-775" y="1463" width="138" height="36" as="geometry" />
        </mxCell>
        <mxCell id="WGlPNumz3ylJq4lVujA1-20" value="3-10" style="text;html=1;strokeColor=none;fillColor=none;align=center;verticalAlign=middle;whiteSpace=wrap;rounded=0;fontSize=20;fontFamily=Architects Daughter;" vertex="1" parent="1">
          <mxGeometry x="-640" y="1309" width="164" height="30" as="geometry" />
        </mxCell>
        <mxCell id="WGlPNumz3ylJq4lVujA1-21" value="" style="endArrow=classic;html=1;rounded=0;sketch=1;hachureGap=4;jiggle=2;curveFitting=1;fontFamily=Architects Daughter;fontSource=https%3A%2F%2Ffonts.googleapis.com%2Fcss%3Ffamily%3DArchitects%2BDaughter;fontSize=16;startSize=8;endSize=8;curved=1;" edge="1" parent="1">
          <mxGeometry width="50" height="50" relative="1" as="geometry">
            <mxPoint x="-567" y="1453" as="sourcePoint" />
            <mxPoint x="-567" y="1388" as="targetPoint" />
          </mxGeometry>
        </mxCell>
        <mxCell id="WGlPNumz3ylJq4lVujA1-22" value="崇明测试结束" style="text;html=1;align=center;verticalAlign=middle;resizable=0;points=[];autosize=1;strokeColor=none;fillColor=none;fontSize=20;fontFamily=Architects Daughter;" vertex="1" parent="1">
          <mxGeometry x="-635" y="1463" width="138" height="36" as="geometry" />
        </mxCell>
        <mxCell id="WGlPNumz3ylJq4lVujA1-23" value="3-15" style="text;html=1;strokeColor=none;fillColor=none;align=center;verticalAlign=middle;whiteSpace=wrap;rounded=0;fontSize=20;fontFamily=Architects Daughter;" vertex="1" parent="1">
          <mxGeometry x="-443" y="1309" width="94" height="30" as="geometry" />
        </mxCell>
        <mxCell id="WGlPNumz3ylJq4lVujA1-24" value="" style="endArrow=classic;html=1;rounded=0;sketch=1;hachureGap=4;jiggle=2;curveFitting=1;fontFamily=Architects Daughter;fontSource=https%3A%2F%2Ffonts.googleapis.com%2Fcss%3Ffamily%3DArchitects%2BDaughter;fontSize=16;startSize=8;endSize=8;curved=1;" edge="1" parent="1">
          <mxGeometry width="50" height="50" relative="1" as="geometry">
            <mxPoint x="-393" y="1453" as="sourcePoint" />
            <mxPoint x="-393" y="1388" as="targetPoint" />
          </mxGeometry>
        </mxCell>
        <mxCell id="WGlPNumz3ylJq4lVujA1-25" value="ICSL启动" style="text;html=1;align=center;verticalAlign=middle;resizable=0;points=[];autosize=1;strokeColor=none;fillColor=none;fontSize=20;fontFamily=Architects Daughter;" vertex="1" parent="1">
          <mxGeometry x="-443" y="1463" width="102" height="36" as="geometry" />
        </mxCell>
        <mxCell id="WGlPNumz3ylJq4lVujA1-26" value="4-15" style="text;html=1;strokeColor=none;fillColor=none;align=center;verticalAlign=middle;whiteSpace=wrap;rounded=0;fontSize=20;fontFamily=Architects Daughter;" vertex="1" parent="1">
          <mxGeometry x="-315" y="1312" width="109" height="30" as="geometry" />
        </mxCell>
        <mxCell id="WGlPNumz3ylJq4lVujA1-27" value="" style="endArrow=classic;html=1;rounded=0;sketch=1;hachureGap=4;jiggle=2;curveFitting=1;fontFamily=Architects Daughter;fontSource=https%3A%2F%2Ffonts.googleapis.com%2Fcss%3Ffamily%3DArchitects%2BDaughter;fontSize=16;startSize=8;endSize=8;curved=1;" edge="1" parent="1">
          <mxGeometry width="50" height="50" relative="1" as="geometry">
            <mxPoint x="-265" y="1456" as="sourcePoint" />
            <mxPoint x="-265" y="1391" as="targetPoint" />
          </mxGeometry>
        </mxCell>
        <mxCell id="WGlPNumz3ylJq4lVujA1-28" value="ICSL发证" style="text;html=1;align=center;verticalAlign=middle;resizable=0;points=[];autosize=1;strokeColor=none;fillColor=none;fontSize=20;fontFamily=Architects Daughter;" vertex="1" parent="1">
          <mxGeometry x="-315" y="1461" width="102" height="36" as="geometry" />
        </mxCell>
      </root>
    </mxGraphModel>
  </diagram>
</mxfile>
